<mxfile host="app.diagrams.net" agent="Mozilla/5.0 (X11; Linux x86_64) AppleWebKit/537.36 (KHTML, like Gecko) Chrome/135.0.0.0 Safari/537.36" version="26.2.13">
  <diagram id="C5RBs43oDa-KdzZeNtuy" name="Page-1">
    <mxGraphModel dx="674" dy="851" grid="1" gridSize="10" guides="1" tooltips="1" connect="1" arrows="1" fold="1" page="1" pageScale="1" pageWidth="827" pageHeight="1169" math="0" shadow="0">
      <root>
        <mxCell id="WIyWlLk6GJQsqaUBKTNV-0" />
        <mxCell id="WIyWlLk6GJQsqaUBKTNV-1" parent="WIyWlLk6GJQsqaUBKTNV-0" />
        <mxCell id="uQIm-JMdcsUN6b5IO30l-3" value="" style="edgeStyle=none;curved=1;rounded=0;orthogonalLoop=1;jettySize=auto;html=1;fontSize=12;startSize=8;endSize=8;" edge="1" parent="WIyWlLk6GJQsqaUBKTNV-1" source="WIyWlLk6GJQsqaUBKTNV-3" target="uQIm-JMdcsUN6b5IO30l-0">
          <mxGeometry relative="1" as="geometry" />
        </mxCell>
        <mxCell id="WIyWlLk6GJQsqaUBKTNV-3" value="Inicio" style="rounded=1;whiteSpace=wrap;html=1;fontSize=12;glass=0;strokeWidth=1;shadow=0;" parent="WIyWlLk6GJQsqaUBKTNV-1" vertex="1">
          <mxGeometry x="160" y="80" width="120" height="40" as="geometry" />
        </mxCell>
        <mxCell id="uQIm-JMdcsUN6b5IO30l-4" value="" style="edgeStyle=none;curved=1;rounded=0;orthogonalLoop=1;jettySize=auto;html=1;fontSize=12;startSize=8;endSize=8;" edge="1" parent="WIyWlLk6GJQsqaUBKTNV-1" source="uQIm-JMdcsUN6b5IO30l-0" target="uQIm-JMdcsUN6b5IO30l-1">
          <mxGeometry relative="1" as="geometry" />
        </mxCell>
        <mxCell id="uQIm-JMdcsUN6b5IO30l-0" value="Ingresar peso" style="rounded=1;whiteSpace=wrap;html=1;" vertex="1" parent="WIyWlLk6GJQsqaUBKTNV-1">
          <mxGeometry x="160" y="190" width="120" height="60" as="geometry" />
        </mxCell>
        <mxCell id="uQIm-JMdcsUN6b5IO30l-5" value="" style="edgeStyle=none;curved=1;rounded=0;orthogonalLoop=1;jettySize=auto;html=1;fontSize=12;startSize=8;endSize=8;" edge="1" parent="WIyWlLk6GJQsqaUBKTNV-1" source="uQIm-JMdcsUN6b5IO30l-1" target="uQIm-JMdcsUN6b5IO30l-2">
          <mxGeometry relative="1" as="geometry" />
        </mxCell>
        <mxCell id="uQIm-JMdcsUN6b5IO30l-1" value="Ingresar altura" style="rounded=1;whiteSpace=wrap;html=1;" vertex="1" parent="WIyWlLk6GJQsqaUBKTNV-1">
          <mxGeometry x="160" y="300" width="120" height="60" as="geometry" />
        </mxCell>
        <mxCell id="uQIm-JMdcsUN6b5IO30l-13" value="" style="edgeStyle=none;curved=1;rounded=0;orthogonalLoop=1;jettySize=auto;html=1;fontSize=12;startSize=8;endSize=8;" edge="1" parent="WIyWlLk6GJQsqaUBKTNV-1" source="uQIm-JMdcsUN6b5IO30l-2" target="uQIm-JMdcsUN6b5IO30l-6">
          <mxGeometry relative="1" as="geometry" />
        </mxCell>
        <mxCell id="uQIm-JMdcsUN6b5IO30l-2" value="Calcular IMC" style="rounded=1;whiteSpace=wrap;html=1;" vertex="1" parent="WIyWlLk6GJQsqaUBKTNV-1">
          <mxGeometry x="160" y="420" width="120" height="60" as="geometry" />
        </mxCell>
        <mxCell id="uQIm-JMdcsUN6b5IO30l-8" value="" style="edgeStyle=none;curved=1;rounded=0;orthogonalLoop=1;jettySize=auto;html=1;fontSize=12;startSize=8;endSize=8;" edge="1" parent="WIyWlLk6GJQsqaUBKTNV-1" source="uQIm-JMdcsUN6b5IO30l-6" target="uQIm-JMdcsUN6b5IO30l-7">
          <mxGeometry relative="1" as="geometry" />
        </mxCell>
        <mxCell id="uQIm-JMdcsUN6b5IO30l-15" value="" style="edgeStyle=none;curved=1;rounded=0;orthogonalLoop=1;jettySize=auto;html=1;fontSize=12;startSize=8;endSize=8;" edge="1" parent="WIyWlLk6GJQsqaUBKTNV-1" source="uQIm-JMdcsUN6b5IO30l-6" target="uQIm-JMdcsUN6b5IO30l-14">
          <mxGeometry relative="1" as="geometry" />
        </mxCell>
        <mxCell id="uQIm-JMdcsUN6b5IO30l-6" value="Imc es menor a 18.5" style="rhombus;whiteSpace=wrap;html=1;" vertex="1" parent="WIyWlLk6GJQsqaUBKTNV-1">
          <mxGeometry x="150" y="540" width="140" height="140" as="geometry" />
        </mxCell>
        <mxCell id="uQIm-JMdcsUN6b5IO30l-10" value="" style="edgeStyle=none;curved=1;rounded=0;orthogonalLoop=1;jettySize=auto;html=1;fontSize=12;startSize=8;endSize=8;" edge="1" parent="WIyWlLk6GJQsqaUBKTNV-1" source="uQIm-JMdcsUN6b5IO30l-7" target="uQIm-JMdcsUN6b5IO30l-9">
          <mxGeometry relative="1" as="geometry" />
        </mxCell>
        <mxCell id="uQIm-JMdcsUN6b5IO30l-19" value="" style="edgeStyle=none;curved=1;rounded=0;orthogonalLoop=1;jettySize=auto;html=1;fontSize=12;startSize=8;endSize=8;" edge="1" parent="WIyWlLk6GJQsqaUBKTNV-1" source="uQIm-JMdcsUN6b5IO30l-7" target="uQIm-JMdcsUN6b5IO30l-17">
          <mxGeometry relative="1" as="geometry" />
        </mxCell>
        <mxCell id="uQIm-JMdcsUN6b5IO30l-7" value="Imc es mayor a 18.5 y menor a 24.9" style="rhombus;whiteSpace=wrap;html=1;" vertex="1" parent="WIyWlLk6GJQsqaUBKTNV-1">
          <mxGeometry x="410" y="540" width="140" height="140" as="geometry" />
        </mxCell>
        <mxCell id="uQIm-JMdcsUN6b5IO30l-12" value="" style="edgeStyle=none;curved=1;rounded=0;orthogonalLoop=1;jettySize=auto;html=1;fontSize=12;startSize=8;endSize=8;" edge="1" parent="WIyWlLk6GJQsqaUBKTNV-1" source="uQIm-JMdcsUN6b5IO30l-9" target="uQIm-JMdcsUN6b5IO30l-11">
          <mxGeometry relative="1" as="geometry" />
        </mxCell>
        <mxCell id="uQIm-JMdcsUN6b5IO30l-20" value="" style="edgeStyle=none;curved=1;rounded=0;orthogonalLoop=1;jettySize=auto;html=1;fontSize=12;startSize=8;endSize=8;" edge="1" parent="WIyWlLk6GJQsqaUBKTNV-1" source="uQIm-JMdcsUN6b5IO30l-9" target="uQIm-JMdcsUN6b5IO30l-16">
          <mxGeometry relative="1" as="geometry" />
        </mxCell>
        <mxCell id="uQIm-JMdcsUN6b5IO30l-9" value="Imc es mayor a 25 y menor a 29.9" style="rhombus;whiteSpace=wrap;html=1;" vertex="1" parent="WIyWlLk6GJQsqaUBKTNV-1">
          <mxGeometry x="670" y="540" width="140" height="140" as="geometry" />
        </mxCell>
        <mxCell id="uQIm-JMdcsUN6b5IO30l-21" value="" style="edgeStyle=none;curved=1;rounded=0;orthogonalLoop=1;jettySize=auto;html=1;fontSize=12;startSize=8;endSize=8;" edge="1" parent="WIyWlLk6GJQsqaUBKTNV-1" source="uQIm-JMdcsUN6b5IO30l-11" target="uQIm-JMdcsUN6b5IO30l-18">
          <mxGeometry relative="1" as="geometry" />
        </mxCell>
        <mxCell id="uQIm-JMdcsUN6b5IO30l-11" value="Imc es mayor a 30" style="rhombus;whiteSpace=wrap;html=1;" vertex="1" parent="WIyWlLk6GJQsqaUBKTNV-1">
          <mxGeometry x="930" y="540" width="140" height="140" as="geometry" />
        </mxCell>
        <mxCell id="uQIm-JMdcsUN6b5IO30l-28" style="edgeStyle=elbowEdgeStyle;rounded=0;orthogonalLoop=1;jettySize=auto;html=1;exitX=0.5;exitY=1;exitDx=0;exitDy=0;entryX=0;entryY=0.25;entryDx=0;entryDy=0;fontSize=12;startSize=8;endSize=8;" edge="1" parent="WIyWlLk6GJQsqaUBKTNV-1" source="uQIm-JMdcsUN6b5IO30l-14" target="uQIm-JMdcsUN6b5IO30l-22">
          <mxGeometry relative="1" as="geometry">
            <Array as="points">
              <mxPoint x="220" y="920" />
            </Array>
          </mxGeometry>
        </mxCell>
        <mxCell id="uQIm-JMdcsUN6b5IO30l-14" value="Imprimir &quot;Bajo de peso&quot;" style="rounded=1;whiteSpace=wrap;html=1;" vertex="1" parent="WIyWlLk6GJQsqaUBKTNV-1">
          <mxGeometry x="160" y="800" width="120" height="60" as="geometry" />
        </mxCell>
        <mxCell id="uQIm-JMdcsUN6b5IO30l-25" value="" style="edgeStyle=none;curved=1;rounded=0;orthogonalLoop=1;jettySize=auto;html=1;fontSize=12;startSize=8;endSize=8;" edge="1" parent="WIyWlLk6GJQsqaUBKTNV-1" source="uQIm-JMdcsUN6b5IO30l-16" target="uQIm-JMdcsUN6b5IO30l-22">
          <mxGeometry relative="1" as="geometry" />
        </mxCell>
        <mxCell id="uQIm-JMdcsUN6b5IO30l-16" value="Imprimir &quot;Sobrepeso&quot;" style="rounded=1;whiteSpace=wrap;html=1;" vertex="1" parent="WIyWlLk6GJQsqaUBKTNV-1">
          <mxGeometry x="680" y="800" width="120" height="60" as="geometry" />
        </mxCell>
        <mxCell id="uQIm-JMdcsUN6b5IO30l-17" value="Imprimir &quot;Bajo de peso&quot;" style="rounded=1;whiteSpace=wrap;html=1;" vertex="1" parent="WIyWlLk6GJQsqaUBKTNV-1">
          <mxGeometry x="420" y="800" width="120" height="60" as="geometry" />
        </mxCell>
        <mxCell id="uQIm-JMdcsUN6b5IO30l-18" value="Imprimir &quot;Obesidad&quot;" style="rounded=1;whiteSpace=wrap;html=1;" vertex="1" parent="WIyWlLk6GJQsqaUBKTNV-1">
          <mxGeometry x="940" y="800" width="120" height="60" as="geometry" />
        </mxCell>
        <mxCell id="uQIm-JMdcsUN6b5IO30l-24" value="" style="edgeStyle=none;curved=1;rounded=0;orthogonalLoop=1;jettySize=auto;html=1;fontSize=12;startSize=8;endSize=8;" edge="1" parent="WIyWlLk6GJQsqaUBKTNV-1" source="uQIm-JMdcsUN6b5IO30l-22" target="uQIm-JMdcsUN6b5IO30l-23">
          <mxGeometry relative="1" as="geometry" />
        </mxCell>
        <mxCell id="uQIm-JMdcsUN6b5IO30l-22" value="Calcular imc" style="shape=document;whiteSpace=wrap;html=1;boundedLbl=1;" vertex="1" parent="WIyWlLk6GJQsqaUBKTNV-1">
          <mxGeometry x="680" y="950" width="120" height="80" as="geometry" />
        </mxCell>
        <mxCell id="uQIm-JMdcsUN6b5IO30l-23" value="Fin" style="rounded=1;whiteSpace=wrap;html=1;" vertex="1" parent="WIyWlLk6GJQsqaUBKTNV-1">
          <mxGeometry x="680" y="1070" width="120" height="60" as="geometry" />
        </mxCell>
        <mxCell id="uQIm-JMdcsUN6b5IO30l-26" style="edgeStyle=elbowEdgeStyle;rounded=0;orthogonalLoop=1;jettySize=auto;html=1;exitX=0.5;exitY=1;exitDx=0;exitDy=0;entryX=0.975;entryY=0.038;entryDx=0;entryDy=0;entryPerimeter=0;fontSize=12;startSize=8;endSize=8;" edge="1" parent="WIyWlLk6GJQsqaUBKTNV-1" source="uQIm-JMdcsUN6b5IO30l-18" target="uQIm-JMdcsUN6b5IO30l-22">
          <mxGeometry relative="1" as="geometry">
            <Array as="points">
              <mxPoint x="1000" y="930" />
            </Array>
          </mxGeometry>
        </mxCell>
        <mxCell id="uQIm-JMdcsUN6b5IO30l-27" style="edgeStyle=elbowEdgeStyle;rounded=0;orthogonalLoop=1;jettySize=auto;html=1;exitX=0.5;exitY=1;exitDx=0;exitDy=0;entryX=0.317;entryY=0.038;entryDx=0;entryDy=0;entryPerimeter=0;fontSize=12;startSize=8;endSize=8;" edge="1" parent="WIyWlLk6GJQsqaUBKTNV-1" source="uQIm-JMdcsUN6b5IO30l-17" target="uQIm-JMdcsUN6b5IO30l-22">
          <mxGeometry relative="1" as="geometry">
            <Array as="points">
              <mxPoint x="480" y="910" />
            </Array>
          </mxGeometry>
        </mxCell>
      </root>
    </mxGraphModel>
  </diagram>
</mxfile>
